<?xml version="1.0" standalone="no"?>
<!DOCTYPE svg PUBLIC "-//W3C//DTD SVG 20010904//EN"
 "http://www.w3.org/TR/2001/REC-SVG-20010904/DTD/svg10.dtd">
<svg version="1.0" xmlns="http://www.w3.org/2000/svg"
 width="3083.000000pt" height="3222.000000pt" viewBox="0 0 3083.000000 3222.000000"
 preserveAspectRatio="xMidYMid meet">

<g transform="translate(0.000000,3222.000000) scale(0.100000,-0.100000)"
fill="#000000" stroke="none">
<path d="M15250 24890 c0 -19 -6 -20 -204 -20 -195 0 -204 -1 -209 -20 -5 -19
-14 -20 -150 -20 -136 0 -145 -1 -150 -20 -5 -19 -14 -20 -126 -20 -98 0 -121
-3 -121 -14 0 -8 8 -17 18 -19 9 -3 -29 -5 -84 -6 l-101 -1 5 -25 4 -25 -106
0 c-99 0 -106 -1 -106 -20 0 -18 -7 -20 -65 -20 -58 0 -65 -2 -65 -20 0 -18
-7 -20 -80 -20 -73 0 -80 -2 -80 -20 0 -18 -7 -20 -65 -20 -58 0 -65 -2 -65
-20 0 -18 -7 -20 -60 -20 -53 0 -60 -2 -60 -20 0 -17 -7 -20 -50 -20 -39 0
-48 -3 -44 -15 3 -8 2 -20 -2 -27 -6 -9 -11 -4 -15 17 l-7 30 -1 -27 c-1 -26
-4 -28 -46 -28 -38 0 -45 -3 -45 -20 0 -17 -7 -20 -40 -20 -33 0 -40 -3 -40
-20 0 -18 -7 -20 -65 -20 -58 0 -65 -2 -65 -20 0 -17 -7 -20 -40 -20 -33 0
-40 -3 -40 -20 0 -17 -7 -20 -45 -20 -38 0 -45 -3 -45 -20 0 -17 -7 -20 -40
-20 -36 0 -40 -2 -40 -25 0 -22 -4 -25 -40 -25 -33 0 -40 -3 -40 -20 0 -13 -7
-20 -20 -20 -11 0 -20 -6 -20 -14 0 -17 -30 -30 -31 -13 -1 7 -1 15 0 20 0 4
-4 7 -10 7 -6 0 -8 -9 -4 -20 5 -16 2 -20 -19 -20 -19 0 -26 -5 -26 -20 0 -17
-7 -20 -40 -20 -33 0 -40 -3 -40 -20 0 -13 -7 -20 -20 -20 -13 0 -20 -7 -20
-20 0 -17 -7 -20 -45 -20 -41 0 -45 -2 -45 -25 0 -18 -5 -25 -20 -25 -13 0
-20 -7 -20 -20 0 -17 -7 -20 -40 -20 -33 0 -40 -3 -40 -20 0 -13 -7 -20 -20
-20 -13 0 -20 -7 -20 -20 0 -19 -24 -26 -68 -21 -7 1 -12 -2 -11 -6 4 -23 -4
-33 -26 -33 -18 0 -25 -5 -25 -20 0 -13 -7 -20 -20 -20 -15 0 -20 -7 -20 -25
0 -18 -5 -25 -20 -25 -13 0 -20 -7 -20 -20 0 -13 -7 -20 -20 -20 -13 0 -20 -7
-20 -20 0 -13 -7 -20 -20 -20 -13 0 -20 -7 -20 -20 0 -17 -7 -20 -45 -20 -38
0 -45 -3 -45 -20 0 -13 -7 -20 -20 -20 -13 0 -20 -7 -20 -20 0 -13 -7 -20 -20
-20 -15 0 -20 -7 -20 -25 0 -18 -5 -25 -20 -25 -13 0 -20 -7 -20 -19 0 -10 -9
-21 -20 -24 -15 -4 -20 -14 -20 -41 0 -32 -3 -36 -25 -36 -18 0 -25 -5 -25
-20 0 -13 -7 -20 -20 -20 -13 0 -20 -7 -20 -20 0 -13 -7 -20 -20 -20 -15 0
-20 -7 -20 -25 0 -18 -5 -25 -20 -25 -13 0 -20 -7 -20 -20 0 -13 -7 -20 -20
-20 -16 0 -20 -7 -20 -36 0 -27 -5 -37 -20 -41 -11 -3 -20 -14 -20 -24 0 -14
-7 -19 -25 -19 -18 0 -25 -5 -25 -20 0 -13 -7 -20 -20 -20 -17 0 -20 -7 -20
-45 0 -38 -3 -45 -20 -45 -13 0 -20 -7 -20 -20 0 -13 -7 -20 -20 -20 -17 0
-20 -7 -20 -40 0 -33 -3 -40 -20 -40 -13 0 -20 -7 -20 -20 0 -13 -7 -20 -20
-20 -17 0 -20 -7 -20 -45 0 -41 -2 -45 -25 -45 -22 0 -25 -4 -25 -40 0 -33 -3
-40 -20 -40 -17 0 -20 -7 -20 -40 0 -33 -3 -40 -20 -40 -17 0 -20 -7 -20 -45
0 -38 -3 -45 -20 -45 -17 0 -20 -7 -20 -40 0 -33 -3 -40 -19 -40 -16 0 -20 -8
-23 -42 -2 -29 -8 -43 -17 -43 -8 0 -16 -6 -19 -14 -3 -10 1 -12 14 -8 18 7
18 6 2 -7 -12 -9 -18 -27 -18 -55 0 -37 -2 -41 -25 -41 -24 0 -25 -3 -25 -60
0 -53 -2 -60 -20 -60 -18 0 -20 -7 -20 -65 0 -58 -2 -65 -20 -65 -18 0 -20 -7
-20 -60 0 -53 -2 -60 -20 -60 -18 0 -20 -7 -20 -85 0 -78 -2 -85 -20 -85 -19
0 -20 -7 -20 -105 0 -98 -1 -105 -20 -105 -18 0 -20 -7 -20 -85 0 -82 3 -91
33 -86 4 0 7 -26 7 -59 0 -53 2 -60 20 -60 13 0 20 -7 20 -20 0 -13 7 -20 20
-20 13 0 20 -7 20 -20 0 -13 7 -20 20 -20 15 0 20 -7 20 -25 0 -23 4 -25 45
-25 38 0 45 -3 45 -20 0 -17 7 -20 40 -20 33 0 40 -3 40 -20 0 -19 7 -20 189
-20 155 0 190 -3 194 -14 3 -8 1 -17 -6 -20 -7 -2 84 -5 201 -5 205 -1 212 -2
212 -21 0 -19 7 -20 190 -20 183 0 190 -1 190 -20 0 -19 7 -20 205 -20 l205 0
0 -25 0 -25 190 0 c183 0 190 -1 190 -20 0 -20 7 -20 270 -20 263 0 270 0 270
20 0 13 7 20 20 20 15 0 20 7 20 25 0 18 5 25 20 25 13 0 20 7 20 20 0 13 7
20 20 20 13 0 20 7 20 20 0 15 7 20 25 20 20 0 25 5 26 28 1 15 1 30 0 35 -1
7 15 11 32 8 4 0 7 22 7 49 0 43 3 50 20 50 18 0 20 7 20 80 0 73 2 80 20 80
18 0 20 7 20 65 0 58 2 65 20 65 18 0 20 7 20 60 0 53 2 60 20 60 17 0 20 7
20 45 0 41 2 45 25 45 23 0 25 4 25 40 0 33 3 40 20 40 16 0 20 7 20 36 0 27
5 37 20 41 11 3 20 14 20 24 0 12 7 19 20 19 15 0 20 7 20 25 0 18 5 25 20 25
17 0 20 7 20 40 0 33 3 40 20 40 13 0 20 7 20 20 0 15 7 20 25 20 18 0 25 5
25 20 0 13 7 20 20 20 13 0 20 7 20 20 0 13 7 20 20 20 15 0 20 7 20 25 0 18
5 25 20 25 13 0 20 7 20 20 0 17 7 20 40 20 33 0 40 3 40 20 0 15 7 20 25 20
18 0 25 5 25 20 0 13 7 20 20 20 11 0 20 6 20 14 0 16 21 26 56 26 17 0 24 6
24 20 0 17 7 20 40 20 36 0 40 3 40 25 0 23 4 25 45 25 38 0 45 3 45 20 0 17
7 20 40 20 33 0 40 3 40 20 0 18 7 20 65 20 58 0 65 2 65 20 0 18 7 20 74 20
73 0 104 13 75 31 -9 5 33 9 104 9 107 0 118 2 115 18 -3 16 20 17 355 20 352
2 357 2 357 -18 0 -19 7 -20 98 -20 59 0 92 -4 83 -9 -28 -18 1 -31 71 -31 61
0 70 -2 75 -20 4 -16 14 -20 49 -20 37 0 44 -3 44 -20 0 -17 7 -20 40 -20 33
0 40 -3 40 -20 0 -17 7 -20 40 -20 36 0 40 -2 40 -25 0 -23 4 -25 45 -25 38 0
45 -3 45 -20 0 -13 7 -20 20 -20 13 0 20 -7 20 -20 0 -13 7 -20 20 -20 13 0
20 -7 20 -19 0 -15 7 -19 30 -19 38 1 62 -18 40 -32 -11 -7 -8 -10 13 -10 20
0 30 -6 34 -19 3 -11 15 -21 27 -23 17 -2 22 -11 24 -45 3 -35 7 -43 23 -43
12 0 19 -7 19 -20 0 -13 7 -20 20 -20 16 0 20 -7 20 -36 0 -27 5 -37 20 -41
11 -3 20 -14 20 -24 0 -12 7 -19 20 -19 17 0 20 -7 20 -45 0 -38 3 -45 20 -45
18 0 20 -7 20 -61 0 -60 1 -61 25 -57 25 5 25 4 25 -63 0 -62 2 -69 20 -69 18
0 20 -7 20 -80 0 -73 2 -80 20 -80 19 0 20 -7 21 -192 0 -117 4 -185 9 -173 8
18 9 18 9 2 1 -10 6 -15 11 -12 7 4 10 -158 10 -479 0 -479 0 -486 -20 -486
-13 0 -20 -7 -20 -20 0 -19 -7 -20 -145 -20 -138 0 -145 -1 -145 -20 0 -19 -7
-20 -210 -20 -203 0 -210 -1 -210 -20 0 -19 -7 -20 -209 -20 -204 0 -210 -1
-206 -20 4 -19 -2 -20 -186 -20 l-189 0 0 -25 0 -25 -174 0 c-182 0 -206 -3
-206 -26 0 -11 -28 -14 -146 -14 -141 0 -146 -1 -141 -20 5 -19 0 -20 -140
-20 -136 0 -145 -1 -150 -20 -5 -19 -14 -20 -129 -20 -117 0 -124 -1 -124 -20
0 -19 -7 -20 -109 -20 -104 0 -109 -1 -104 -20 5 -19 0 -20 -101 -20 l-106 0
0 -25 0 -25 -100 0 c-93 0 -100 -1 -100 -20 0 -18 -7 -20 -85 -20 -78 0 -85
-2 -85 -20 0 -18 -7 -20 -86 -20 -81 0 -86 -1 -81 -20 5 -18 0 -20 -59 -20
-57 0 -64 -2 -64 -20 0 -18 -7 -20 -64 -20 -55 0 -64 -3 -69 -20 -4 -17 -14
-20 -65 -20 -58 0 -59 -1 -54 -25 4 -25 3 -25 -62 -25 -59 0 -66 -2 -66 -20 0
-18 -7 -20 -60 -20 -53 0 -60 -2 -60 -20 0 -17 -7 -20 -44 -20 -35 0 -45 -4
-49 -20 -4 -17 -14 -20 -61 -20 -49 0 -56 -2 -56 -20 0 -17 -7 -20 -40 -20
-33 0 -40 -3 -40 -20 0 -17 -7 -20 -45 -20 -41 0 -45 -2 -45 -25 0 -22 -4 -25
-40 -25 -33 0 -40 -3 -40 -20 0 -17 -7 -20 -40 -20 -33 0 -40 -3 -40 -20 0
-17 -7 -20 -45 -20 -38 0 -45 -3 -45 -20 0 -15 -7 -20 -27 -21 -16 -1 -32 -1
-36 0 -5 1 -6 -3 -2 -9 3 -5 1 -10 -5 -10 -6 0 -8 -4 -5 -10 4 -6 -5 -10 -19
-10 -19 0 -26 -5 -26 -20 0 -17 -7 -20 -45 -20 -41 0 -45 -2 -45 -25 0 -18 -5
-25 -20 -25 -13 0 -20 -7 -20 -20 0 -17 -7 -20 -40 -20 -33 0 -40 -3 -40 -20
0 -13 -7 -20 -20 -20 -13 0 -20 -7 -20 -20 0 -17 -7 -20 -45 -20 -38 0 -45 -3
-45 -20 0 -13 -7 -20 -20 -20 -13 0 -20 -7 -20 -20 0 -13 -7 -20 -19 -20 -13
0 -21 -8 -23 -22 -2 -19 -10 -24 -40 -26 -30 -3 -38 -7 -38 -23 0 -12 -7 -19
-20 -19 -13 0 -20 -7 -20 -20 0 -15 -7 -20 -25 -20 -18 0 -25 -5 -25 -20 0
-13 -7 -20 -20 -20 -13 0 -20 -7 -20 -20 0 -13 -7 -20 -20 -20 -13 0 -20 -7
-20 -20 0 -13 -7 -20 -20 -20 -15 0 -20 -7 -20 -25 0 -18 -5 -25 -19 -25 -10
0 -21 -9 -24 -20 -3 -11 -11 -19 -18 -18 -8 2 -15 -7 -17 -19 -2 -17 -10 -23
-28 -23 -17 0 -24 -5 -24 -20 0 -13 -7 -20 -20 -20 -13 0 -20 -7 -20 -20 0
-13 -7 -20 -20 -20 -13 0 -20 -7 -20 -20 0 -13 -7 -20 -20 -20 -15 0 -20 -7
-20 -25 0 -18 -5 -25 -20 -25 -13 0 -20 -7 -20 -20 0 -13 -7 -20 -20 -20 -13
0 -20 -7 -20 -20 0 -15 -7 -20 -25 -20 -22 0 -25 -4 -25 -40 0 -33 -3 -40 -20
-40 -13 0 -20 -7 -20 -20 0 -13 -7 -20 -20 -20 -15 0 -20 -7 -20 -25 0 -18 -5
-25 -20 -25 -17 0 -20 -7 -20 -40 0 -33 -3 -40 -20 -40 -13 0 -20 -7 -20 -20
0 -13 -7 -20 -20 -20 -17 0 -20 -7 -20 -40 0 -36 -2 -40 -25 -40 -20 0 -25 -5
-25 -25 0 -18 -5 -25 -20 -25 -17 0 -20 -7 -20 -40 0 -33 -3 -40 -20 -40 -17
0 -20 -7 -20 -40 0 -33 -3 -40 -20 -40 -17 0 -20 -7 -20 -46 0 -41 -2 -46 -20
-41 -20 5 -26 -13 -21 -65 2 -12 -5 -18 -18 -18 -18 0 -21 -6 -21 -40 0 -36
-2 -40 -25 -40 -23 0 -25 -4 -25 -45 0 -38 -3 -45 -20 -45 -17 0 -20 -7 -20
-44 0 -36 -3 -44 -17 -42 -15 1 -19 -9 -21 -56 -3 -50 -6 -58 -22 -58 -18 0
-20 -7 -20 -65 0 -58 -2 -65 -20 -65 -18 0 -20 -7 -20 -85 0 -78 -2 -85 -20
-85 -18 0 -20 -7 -20 -80 0 -79 0 -80 -25 -80 l-25 0 0 -105 c0 -98 -1 -105
-20 -105 -19 0 -20 -7 -20 -149 0 -144 -1 -149 -20 -144 -20 5 -20 0 -20 -495
0 -495 0 -500 20 -495 19 5 20 0 20 -151 0 -142 2 -156 18 -157 10 0 12 -3 5
-6 -7 -2 -13 -12 -13 -20 0 -9 6 -13 15 -9 13 4 15 -10 15 -92 0 -58 4 -92 9
-83 6 10 13 11 27 3 11 -6 18 -13 17 -16 -2 -3 -3 -46 -3 -96 0 -83 1 -90 20
-90 18 0 20 -7 20 -65 0 -58 2 -65 20 -65 18 0 20 -7 20 -60 0 -53 2 -60 20
-60 18 0 20 -7 20 -65 0 -58 2 -65 20 -65 17 0 20 -7 20 -40 0 -33 3 -40 20
-40 17 0 20 -7 20 -39 0 -33 4 -40 23 -43 18 -2 23 -11 27 -48 3 -31 10 -45
20 -45 10 0 16 -12 18 -37 3 -30 7 -38 23 -38 16 0 19 -7 19 -40 0 -33 3 -40
20 -40 17 0 20 -7 20 -45 0 -38 3 -45 20 -45 13 0 20 -7 20 -19 0 -11 9 -22
20 -26 11 -3 19 -9 19 -13 -1 -4 -1 -19 0 -34 1 -23 6 -28 26 -28 18 0 25 -5
25 -20 0 -13 7 -20 20 -20 17 0 20 -7 20 -45 0 -38 3 -45 20 -45 13 0 20 -7
20 -20 0 -13 7 -20 20 -20 13 0 20 -7 20 -20 0 -13 7 -20 19 -20 16 0 20 -8
23 -37 2 -29 7 -38 21 -37 12 1 17 -5 17 -22 0 -19 5 -24 25 -24 20 0 25 -5
25 -25 0 -18 5 -25 20 -25 13 0 20 -7 20 -20 0 -13 7 -20 20 -20 13 0 20 -7
20 -20 0 -13 7 -20 20 -20 13 0 20 -7 20 -20 0 -13 7 -20 20 -20 13 0 20 -7
20 -20 0 -13 7 -20 20 -20 13 0 20 -7 20 -20 0 -17 7 -20 40 -20 34 0 41 -4
46 -25 4 -16 13 -25 25 -25 12 0 19 -7 19 -20 0 -13 7 -20 20 -20 13 0 20 -7
20 -20 0 -13 7 -20 19 -20 10 0 21 -9 24 -20 4 -16 14 -20 46 -20 34 0 41 -3
41 -20 0 -13 7 -20 20 -20 13 0 20 -7 20 -20 0 -17 7 -20 40 -20 36 0 40 -2
40 -25 0 -20 5 -25 24 -25 35 0 56 -10 56 -26 0 -8 10 -14 25 -14 18 0 25 -5
25 -20 0 -17 7 -20 40 -20 33 0 40 -3 40 -20 0 -17 7 -20 40 -20 33 0 40 -3
40 -20 0 -17 7 -20 45 -20 38 0 45 -3 45 -20 0 -16 8 -19 58 -22 52 -3 57 -5
56 -25 0 -20 4 -23 43 -23 36 0 43 -3 43 -20 0 -18 7 -20 65 -20 58 0 65 -2
65 -20 0 -18 7 -20 60 -20 53 0 60 -2 60 -20 0 -18 7 -20 85 -20 78 0 85 -2
85 -20 0 -18 7 -20 83 -20 97 0 130 -7 123 -26 -4 -11 16 -14 109 -14 l115 0
0 -25 0 -24 725 -1 725 0 0 25 0 25 145 0 c138 0 145 1 145 20 0 19 7 20 125
20 118 0 125 1 125 20 0 18 7 20 80 20 73 0 80 2 80 20 0 18 7 20 84 20 79 0
85 1 81 20 -4 18 2 20 66 20 62 0 69 2 69 20 0 18 7 20 54 20 46 0 54 3 59 21
3 13 1 19 -6 16 -7 -3 -11 -10 -9 -16 1 -6 -2 -11 -8 -11 -16 0 -11 27 6 34 9
3 36 6 60 6 37 0 44 3 44 20 0 18 7 20 58 20 39 0 52 3 42 10 -22 14 -5 23 55
28 46 4 55 8 55 23 0 16 8 19 45 19 38 0 45 3 45 20 0 17 7 20 40 20 33 0 40
3 40 20 0 13 7 20 20 20 15 0 20 7 20 25 0 23 4 25 40 25 33 0 40 3 40 20 0
17 7 20 45 20 38 0 45 3 45 20 0 13 7 20 20 20 13 0 20 7 20 20 0 21 14 27 24
11 4 -5 0 -12 -6 -14 -8 -3 -6 -6 5 -6 9 -1 17 6 17 14 0 8 9 15 20 15 13 0
20 7 20 20 0 17 7 20 46 20 41 0 46 2 41 20 -4 16 0 20 19 20 19 0 24 5 24 25
0 18 5 25 20 25 13 0 20 7 20 20 0 17 7 20 40 20 33 0 40 3 40 20 0 13 7 20
20 20 13 0 20 7 20 20 0 15 7 20 25 20 18 0 25 5 25 20 0 17 7 20 40 20 33 0
40 3 40 20 0 13 7 20 20 20 15 0 20 7 20 25 0 18 5 25 20 25 13 0 20 7 20 20
0 13 7 20 20 20 13 0 20 7 20 20 0 17 7 20 41 20 32 0 42 4 46 20 3 11 14 20
24 20 12 0 19 7 19 20 0 13 7 20 20 20 13 0 20 7 20 20 0 13 7 20 20 20 15 0
20 7 20 25 0 18 5 25 20 25 13 0 20 7 20 20 0 15 7 20 25 20 18 0 25 5 25 20
0 13 7 20 20 20 13 0 20 7 20 20 0 13 7 20 20 20 13 0 20 7 20 20 0 13 7 20
19 20 10 0 21 9 24 19 3 14 15 21 38 23 21 2 35 9 35 18 5 48 6 54 11 43 7
-20 31 -15 38 7 3 11 15 20 26 20 12 0 19 7 19 20 0 17 7 20 40 20 33 0 40 -3
40 -20 0 -13 7 -20 20 -20 17 0 20 -7 20 -45 0 -38 3 -45 20 -45 13 0 20 -7
20 -20 0 -15 7 -20 25 -20 23 0 25 -4 25 -40 0 -33 3 -40 20 -40 13 0 20 -7
20 -20 0 -13 7 -20 19 -20 16 0 20 -8 23 -42 2 -26 8 -43 18 -45 13 -4 13 -3
0 7 -13 10 -13 11 0 7 8 -2 16 -16 18 -30 2 -19 9 -27 23 -27 12 0 19 -7 19
-20 0 -13 7 -20 20 -20 17 0 20 -7 20 -40 0 -36 3 -40 25 -40 18 0 25 -5 25
-20 0 -13 7 -20 20 -20 15 0 20 -7 20 -25 0 -18 5 -25 20 -25 17 0 20 -7 20
-40 0 -33 3 -40 20 -40 13 0 20 -7 20 -20 0 -13 7 -20 20 -20 13 0 20 -7 20
-20 0 -13 7 -20 20 -20 13 0 20 -7 20 -20 0 -15 7 -20 25 -20 20 0 25 -5 25
-25 0 -18 5 -25 20 -25 13 0 20 -7 20 -20 0 -13 7 -20 20 -20 13 0 20 -7 20
-20 0 -13 7 -20 20 -20 15 0 20 -7 20 -25 0 -17 4 -23 15 -19 9 4 18 -1 22
-12 3 -11 11 -22 17 -26 7 -5 7 -8 -1 -8 -7 0 -13 -7 -13 -15 0 -8 9 -15 19
-15 12 0 23 -10 28 -27 8 -22 11 -24 16 -10 3 9 2 17 -3 17 -6 0 -10 5 -10 10
0 6 6 10 14 10 19 0 30 -32 14 -42 -8 -5 -1 -8 20 -8 25 0 32 -4 32 -20 0 -13
7 -20 20 -20 13 0 20 -7 20 -20 0 -13 7 -20 20 -20 13 0 20 -7 20 -20 0 -13 7
-20 20 -20 13 0 20 -7 20 -20 0 -13 7 -20 20 -20 13 0 20 -7 20 -20 0 -15 7
-20 25 -20 20 0 25 -5 25 -25 0 -18 5 -25 20 -25 13 0 20 -7 20 -20 0 -17 7
-20 40 -20 33 0 40 -3 40 -20 0 -13 7 -20 20 -20 13 0 20 -7 20 -20 0 -13 7
-20 20 -20 13 0 20 -7 20 -20 0 -19 7 -20 105 -20 98 0 105 -1 105 -20 0 -13
7 -20 20 -20 13 0 20 7 20 20 0 18 7 20 89 20 78 0 89 2 87 18 -1 13 8 18 37
20 29 3 37 7 37 23 0 16 7 19 45 19 38 0 45 3 45 20 0 13 7 20 20 20 13 0 20
7 20 20 0 13 7 20 20 20 15 0 20 7 20 25 0 18 5 25 20 25 13 0 20 7 20 20 0
13 7 20 20 20 13 0 20 7 20 20 0 15 7 20 25 20 18 0 25 5 25 20 0 17 7 20 40
20 33 0 40 3 40 20 0 13 7 20 20 20 13 0 20 7 20 20 0 13 7 20 20 20 15 0 20
7 20 25 0 18 5 25 20 25 13 0 20 7 20 20 0 15 7 20 25 20 18 0 25 5 25 20 0
13 7 20 19 20 10 0 21 9 24 20 4 15 14 20 41 20 29 0 36 4 36 20 0 13 7 20 20
20 13 0 20 7 20 20 0 13 7 20 20 20 15 0 20 7 20 25 0 20 5 25 25 25 18 0 25
5 25 20 0 13 7 20 20 20 13 0 20 7 20 20 0 16 7 20 35 20 35 0 50 22 23 34 -9
4 -8 5 2 5 46 -3 60 2 60 21 0 13 7 20 20 20 13 0 20 7 20 20 0 15 7 20 25 20
20 0 25 5 25 25 0 18 5 25 20 25 13 0 20 7 20 20 0 13 7 20 20 20 11 0 20 4
20 10 0 5 6 8 13 6 6 -1 9 -1 5 1 -19 11 -5 23 27 23 28 0 35 4 35 20 0 13 7
20 20 20 13 0 20 7 20 20 0 15 7 20 25 20 18 0 25 5 25 20 0 13 7 20 20 20 15
0 20 7 20 25 0 18 5 25 20 25 13 0 20 7 20 20 0 17 7 20 40 20 33 0 40 3 40
20 0 13 7 20 20 20 13 0 20 7 20 20 0 15 7 20 25 20 18 0 25 5 25 20 0 13 7
20 20 20 13 0 20 7 20 20 0 13 7 20 20 20 15 0 20 7 20 25 0 22 4 25 36 25 27
0 37 5 41 20 3 11 14 20 24 20 12 0 19 7 19 20 0 15 7 20 25 20 18 0 25 5 25
20 0 13 7 20 20 20 13 0 20 7 20 20 0 13 7 20 20 20 13 0 20 7 20 20 0 13 7
20 20 20 15 0 20 7 20 25 0 18 5 25 20 25 17 0 20 7 20 40 0 33 3 40 20 40 19
0 20 7 20 125 0 118 -1 125 -20 125 -17 0 -20 7 -20 40 0 33 -3 40 -20 40 -17
0 -20 7 -20 45 0 38 -3 45 -20 45 -17 0 -20 7 -20 40 0 33 -3 40 -20 40 -13 0
-20 7 -20 20 0 13 -7 20 -20 20 -13 0 -20 7 -20 20 0 15 -7 20 -24 20 -22 0
-25 5 -28 43 -2 29 -8 42 -18 42 -8 0 -16 10 -18 23 -2 14 -10 22 -23 22 -12
0 -19 7 -19 20 0 13 -7 20 -20 20 -16 0 -20 7 -20 35 0 27 -4 35 -17 35 -15 0
-16 -2 -3 -10 8 -5 11 -12 7 -17 -11 -11 -27 17 -27 50 0 20 -5 27 -20 27 -15
0 -20 7 -20 25 0 20 -5 25 -25 25 -22 0 -25 4 -25 40 0 33 -3 40 -20 40 -13 0
-20 7 -20 20 0 13 -7 20 -20 20 -17 0 -20 7 -20 40 0 33 -3 40 -20 40 -15 0
-20 7 -20 25 0 18 -5 25 -20 25 -17 0 -20 7 -20 40 0 33 -3 40 -20 40 -17 0
-20 7 -20 40 0 36 -2 40 -25 40 -23 0 -25 4 -25 45 0 38 -3 45 -20 45 -17 0
-20 7 -20 40 0 33 -3 40 -20 40 -17 0 -20 7 -21 48 -1 26 -1 50 0 54 0 4 -8
10 -19 13 -16 5 -20 15 -20 50 0 34 -4 44 -20 48 -11 3 -20 9 -19 14 1 4 1 38
0 76 -1 60 -3 67 -21 67 -19 0 -20 7 -20 106 l0 106 -25 -4 -25 -5 0 2628 c0
2622 0 2629 -20 2629 -20 0 -20 7 -20 355 0 348 0 355 -20 355 -19 0 -20 7
-20 145 0 138 -1 145 -20 145 -19 0 -20 7 -20 110 0 107 -1 110 -22 110 -19 0
-20 2 -8 10 10 6 11 10 3 10 -10 0 -13 25 -13 90 0 83 -1 90 -20 90 -18 0 -20
7 -20 60 0 57 -1 60 -25 60 -24 0 -25 2 -25 65 0 58 -2 65 -20 65 -18 0 -20 7
-20 60 0 53 -2 60 -20 60 -17 0 -20 7 -20 45 0 38 -3 45 -20 45 -17 0 -20 7
-20 40 0 33 -3 40 -20 40 -17 0 -20 7 -20 40 0 33 -3 40 -20 40 -17 0 -20 7
-20 45 0 41 -2 45 -25 45 -22 0 -25 4 -25 40 0 33 -3 40 -20 40 -13 0 -20 7
-20 20 0 13 -7 20 -20 20 -17 0 -20 7 -20 45 0 38 -3 45 -20 45 -13 0 -20 7
-20 20 0 13 -7 20 -20 20 -17 0 -20 7 -20 40 0 33 -3 40 -20 40 -13 0 -20 7
-20 20 0 15 -7 20 -25 20 -18 0 -25 5 -25 20 0 13 -7 20 -20 20 -15 0 -20 7
-20 25 0 18 -5 25 -20 25 -13 0 -20 7 -20 19 0 10 -9 21 -19 24 -14 3 -21 15
-23 38 -2 26 -8 35 -24 37 -16 2 -20 8 -17 21 3 13 -1 18 -14 18 -47 0 -73 4
-72 11 3 20 -3 32 -17 32 -8 0 -12 5 -9 10 3 6 1 10 -4 10 -6 0 -11 7 -11 15
0 8 -9 15 -20 15 -13 0 -20 7 -20 20 0 13 -7 20 -20 20 -13 0 -20 7 -20 20 0
13 -7 20 -20 20 -13 0 -20 7 -20 20 0 13 -7 20 -20 20 -13 0 -20 7 -20 20 0
15 -7 20 -25 20 -18 0 -25 5 -25 19 0 16 -8 20 -37 23 -31 2 -39 7 -41 26 -2
14 -10 22 -23 22 -12 0 -19 7 -19 20 0 13 -7 20 -19 20 -10 0 -21 9 -24 20 -4
16 -14 20 -46 20 -34 0 -41 3 -41 20 0 14 -7 20 -24 20 -19 0 -23 4 -19 20 5
18 0 20 -36 20 -34 0 -41 3 -41 20 0 17 -7 20 -40 20 -36 0 -40 3 -40 25 0 23
-4 25 -41 25 -32 0 -42 4 -46 20 -3 13 -14 20 -29 20 -18 0 -22 4 -17 17 5 12
2 15 -10 10 -9 -3 -17 -2 -17 3 0 6 -13 10 -29 10 -19 0 -28 5 -27 14 0 8 -3
15 -9 15 -5 0 -9 -7 -9 -14 1 -8 -2 -12 -7 -9 -5 3 -9 11 -9 19 0 9 -14 15
-42 17 -34 2 -43 7 -42 21 2 14 -6 17 -42 17 -37 0 -44 3 -44 20 0 17 -7 20
-40 20 -36 0 -40 3 -40 25 0 24 -2 25 -65 25 -58 0 -65 2 -65 20 0 18 -7 20
-61 20 -56 0 -61 2 -56 20 5 18 0 20 -60 20 -56 0 -66 3 -70 20 -5 17 -14 20
-64 20 -52 0 -59 2 -59 20 0 18 -7 20 -65 20 -58 0 -65 2 -65 20 0 18 -7 20
-85 20 -84 0 -85 0 -85 25 l0 25 -100 0 c-93 0 -100 1 -100 20 0 19 -7 20
-105 20 -98 0 -105 1 -105 20 0 19 -7 20 -125 20 -118 0 -125 1 -125 20 0 19
-7 20 -194 20 -189 0 -195 1 -191 20 4 19 -5 19 -621 20 -619 0 -624 0 -624
-20z m-3160 -1080 c0 -5 -8 -10 -17 -10 -15 0 -16 2 -3 10 19 12 20 12 20 0z
m5080 -5790 c0 -13 7 -20 20 -20 20 0 20 -7 20 -606 0 -519 -2 -605 -14 -601
-8 3 -17 -1 -20 -9 -3 -9 -6 -125 -6 -259 0 -134 -3 -250 -6 -259 -3 -9 -12
-16 -20 -16 -11 0 -14 -24 -14 -121 0 -112 -1 -121 -20 -126 -18 -5 -20 -14
-20 -89 0 -83 0 -84 -25 -84 -24 0 -25 -2 -25 -64 0 -55 -3 -64 -20 -69 -17
-4 -20 -14 -20 -61 0 -49 -2 -56 -20 -56 -18 0 -20 -7 -20 -65 0 -58 -2 -65
-20 -65 -17 0 -20 -7 -20 -40 0 -33 -3 -40 -20 -40 -17 0 -20 -7 -20 -40 0
-33 -3 -40 -20 -40 -17 0 -20 -7 -20 -44 0 -39 -3 -45 -22 -48 -19 -2 -24 -10
-26 -40 -3 -30 -7 -38 -23 -38 -16 0 -19 -7 -19 -40 0 -33 -3 -40 -20 -40 -15
0 -20 -7 -20 -25 0 -14 -6 -25 -12 -25 -10 0 -9 -3 1 -9 16 -10 6 -31 -15 -31
-8 0 -14 -9 -14 -20 0 -13 -7 -20 -20 -20 -13 0 -20 -7 -20 -19 0 -10 -9 -21
-20 -24 -15 -4 -20 -14 -20 -41 0 -32 -3 -36 -25 -36 -18 0 -25 -5 -25 -20 0
-13 -7 -20 -20 -20 -15 0 -20 -7 -20 -25 0 -18 -5 -25 -20 -25 -13 0 -20 -7
-20 -20 0 -13 -7 -20 -20 -20 -13 0 -20 -7 -20 -20 0 -13 -7 -20 -20 -20 -13
0 -20 -7 -20 -20 0 -13 -7 -20 -20 -20 -13 0 -20 -7 -20 -20 0 -15 -7 -20 -25
-20 -18 0 -25 -5 -25 -20 0 -13 -7 -20 -20 -20 -15 0 -20 -7 -20 -25 0 -18 -5
-25 -20 -25 -13 0 -20 -7 -20 -20 0 -13 -7 -20 -20 -20 -13 0 -20 -7 -20 -20
0 -17 -7 -20 -40 -20 -33 0 -40 -3 -40 -20 0 -15 -7 -20 -25 -20 -18 0 -25 -5
-25 -20 0 -17 -7 -20 -40 -20 -33 0 -40 -3 -40 -20 0 -13 -7 -20 -20 -20 -15
0 -20 -7 -20 -25 0 -22 -4 -25 -40 -25 -33 0 -40 -3 -40 -20 0 -18 -7 -20 -65
-20 -58 0 -65 -2 -65 -20 0 -17 -7 -20 -39 -20 -30 0 -40 -4 -44 -20 -5 -18
-14 -20 -86 -20 -74 0 -81 -2 -81 -20 0 -20 -7 -20 -355 -20 -348 0 -355 0
-355 20 0 18 -7 20 -60 20 -53 0 -60 2 -60 20 0 18 -7 20 -65 20 -58 0 -65 2
-65 20 0 17 -7 20 -40 20 -33 0 -40 3 -40 20 0 17 -7 20 -40 20 -36 0 -40 3
-40 25 0 20 -5 25 -25 25 -18 0 -25 5 -25 20 0 14 -7 20 -24 20 -13 0 -32 3
-41 6 -13 5 -14 8 -3 15 9 6 3 10 -19 15 -23 5 -33 12 -33 25 0 12 -7 19 -20
19 -13 0 -20 7 -20 20 0 13 -7 20 -20 20 -13 0 -20 7 -20 20 0 15 -7 20 -25
20 -20 0 -25 5 -25 25 0 18 -5 25 -20 25 -11 0 -19 3 -19 8 1 4 1 22 0 40 -1
25 -5 32 -21 32 -13 0 -20 7 -20 20 0 13 -7 20 -20 20 -17 0 -20 7 -20 40 0
33 -3 40 -20 40 -17 0 -20 7 -20 45 0 38 -3 45 -20 45 -17 0 -20 7 -20 40 0
36 -2 40 -25 40 -24 0 -25 2 -25 65 0 58 -2 65 -20 65 -18 0 -20 7 -20 60 0
53 -2 60 -20 60 -19 0 -20 7 -20 125 0 118 -1 125 -20 125 -20 0 -20 7 -20
339 0 330 0 339 20 344 19 5 20 14 20 121 0 109 1 116 20 116 18 0 20 7 20 80
0 73 2 80 20 80 18 0 20 7 20 65 0 63 1 65 25 65 23 0 25 4 25 40 0 33 3 40
20 40 17 0 20 7 20 45 0 38 3 45 20 45 17 0 20 7 20 40 0 33 3 40 20 40 17 0
20 7 20 40 0 33 3 40 20 40 13 0 20 7 20 20 0 13 7 20 20 20 18 0 25 23 19 66
-1 8 22 24 34 24 5 0 6 -4 2 -9 -3 -5 -1 -12 5 -16 6 -4 10 8 10 29 0 29 4 36
20 36 13 0 20 7 20 20 0 13 7 20 20 20 13 0 20 7 20 20 0 13 7 20 20 20 13 0
20 7 20 20 0 13 7 20 20 20 15 0 20 7 20 25 0 18 5 25 20 25 13 0 20 7 20 20
0 15 7 20 25 20 18 0 25 5 25 20 0 13 7 20 20 20 13 0 20 7 20 20 0 17 7 20
40 20 33 0 40 3 40 20 0 13 7 20 20 20 13 0 20 7 20 20 0 17 7 20 45 20 41 0
45 2 45 25 0 18 5 25 20 25 13 0 20 7 20 20 0 17 7 20 40 20 33 0 40 3 40 20
0 17 7 20 40 20 33 0 40 3 40 20 0 17 7 20 45 20 38 0 45 3 45 20 0 17 7 20
40 20 33 0 40 3 40 20 0 18 7 20 66 20 65 0 66 0 62 25 -5 24 -4 25 54 25 51
0 61 3 65 20 5 17 14 20 69 20 57 0 64 2 64 20 0 18 7 20 64 20 59 0 64 2 59
20 -5 19 0 20 101 20 99 0 106 1 106 20 0 19 7 20 105 20 98 0 105 1 105 20 0
19 7 20 159 20 136 0 160 2 165 16 3 9 4 20 0 25 -3 5 99 9 250 9 252 0 286 3
286 22 0 6 -6 5 -15 -2 -14 -12 -22 0 -8 13 3 4 107 7 230 7 216 0 223 -1 223
-20z m-983 -42 c-3 -8 -6 -5 -6 6 -1 11 2 17 5 13 3 -3 4 -12 1 -19z m-5690
-1134 c-3 -3 -12 -4 -19 -1 -8 3 -5 6 6 6 11 1 17 -2 13 -5z m10779 -2623 c0
-16 -3 -17 -14 -9 -12 10 -7 19 13 28 1 0 1 -9 1 -19z m-5839 -2326 c0 -8 -4
-15 -9 -15 -10 0 -11 14 -1 23 9 10 10 9 10 -8z"/>
<path d="M15475 17850 c3 -5 10 -10 16 -10 5 0 9 5 9 10 0 6 -7 10 -16 10 -8
0 -12 -4 -9 -10z"/>
<path d="M11753 12175 c0 -7 6 -11 14 -8 7 3 13 6 13 8 0 2 -6 5 -13 8 -8 3
-14 -1 -14 -8z"/>
</g>
</svg>
